HIERARCHY
ROOT Hips
{
	OFFSET	0.00	0.00	0.00
	CHANNELS 6 Xposition Yposition Zposition Zrotation Xrotation Yrotation
	JOINT LeftUpLeg
	{
		OFFSET	 0.126116	-0.014019	-0.065224
		CHANNELS 3 Zrotation Xrotation Yrotation
		JOINT LeftLeg
		{
			OFFSET	 0.000000	 0.000000	 0.569914
			CHANNELS 3 Zrotation Xrotation Yrotation
			JOINT LeftFoot
			{
				OFFSET	 0.000000	 0.000000	 0.544423
				CHANNELS 3 Zrotation Xrotation Yrotation
				JOINT LeftToeBase
				{
					OFFSET	 0.000000	 0.000000	 0.207117
					CHANNELS 3 Zrotation Xrotation Yrotation
					End Site
					{
						OFFSET	 0.000000	 0.000000	 0.207117
					}
				}
			}
		}
	}
	JOINT RightUpLeg
	{
		OFFSET	-0.124023	-0.008373	-0.065224
		CHANNELS 3 Zrotation Xrotation Yrotation
		JOINT RightLeg
		{
			OFFSET	 0.000000	 0.000000	 0.570047
			CHANNELS 3 Zrotation Xrotation Yrotation
			JOINT RightFoot
			{
				OFFSET	 0.000000	 0.000000	 0.544354
				CHANNELS 3 Zrotation Xrotation Yrotation
				JOINT RightToeBase
				{
					OFFSET	 0.000000	 0.000000	 0.207540
					CHANNELS 3 Zrotation Xrotation Yrotation
					End Site
					{
						OFFSET	 0.000000	 0.000000	 0.207540
					}
				}
			}
		}
	}
	JOINT Spine
	{
		OFFSET	 0.000184	-0.007763	 0.117403
		CHANNELS 3 Zrotation Xrotation Yrotation
		JOINT Spine1
		{
			OFFSET	 0.000000	 0.000000	 0.137269
			CHANNELS 3 Zrotation Xrotation Yrotation
			JOINT Spine2
			{
				OFFSET	 0.000000	 0.000000	 0.156879
				CHANNELS 3 Zrotation Xrotation Yrotation
				JOINT LeftShoulder
				{
					OFFSET	 0.080501	-0.002496	 0.160144
					CHANNELS 3 Zrotation Xrotation Yrotation
					JOINT LeftArm
					{
						OFFSET	 0.000000	 0.000000	 0.164363
						CHANNELS 3 Zrotation Xrotation Yrotation
						JOINT LeftForeArm
						{
							OFFSET	 0.000000	 0.000000	 0.364576
							CHANNELS 3 Zrotation Xrotation Yrotation
							JOINT LeftHand
							{
								OFFSET	 0.000000	 0.000000	 0.360812
								CHANNELS 3 Zrotation Xrotation Yrotation
								JOINT LeftHandIndex1
								{
									OFFSET	 0.000000	 0.000000	 0.086006
									CHANNELS 3 Zrotation Xrotation Yrotation
									JOINT LeftHandIndex2
									{
										OFFSET	 0.000000	 0.000000	 0.047236
										CHANNELS 3 Zrotation Xrotation Yrotation
										JOINT LeftHandIndex3
										{
											OFFSET	-0.004284	-0.000551	 0.038166
											CHANNELS 3 Zrotation Xrotation Yrotation
											End Site
											{
												OFFSET	-0.004284	-0.000551	 0.038166
											}
										}
									}
								}
							}
						}
					}
				}
				JOINT Neck
				{
					OFFSET	 0.000000	 0.000000	 0.176489
					CHANNELS 3 Zrotation Xrotation Yrotation
					JOINT Head
					{
						OFFSET	 0.000000	-0.001747	 0.077940
						CHANNELS 3 Zrotation Xrotation Yrotation
						End Site
						{
							OFFSET	 0.000000	-0.001747	 0.077940
						}
					}
				}
				JOINT RightShoulder
				{
					OFFSET	-0.080363	 0.000306	 0.159706
					CHANNELS 3 Zrotation Xrotation Yrotation
					JOINT RightArm
					{
						OFFSET	 0.000000	 0.000000	 0.164196
						CHANNELS 3 Zrotation Xrotation Yrotation
						JOINT RightForeArm
						{
							OFFSET	 0.000000	 0.000000	 0.365611
							CHANNELS 3 Zrotation Xrotation Yrotation
							JOINT RightHand
							{
								OFFSET	 0.000000	 0.000000	 0.360648
								CHANNELS 3 Zrotation Xrotation Yrotation
								JOINT RightHandIndex1
								{
									OFFSET	 0.000000	 0.000000	 0.069977
									CHANNELS 3 Zrotation Xrotation Yrotation
									JOINT RightHandIndex2
									{
										OFFSET	 0.000000	 0.000000	 0.052305
										CHANNELS 3 Zrotation Xrotation Yrotation
										JOINT RightHandIndex3
										{
											OFFSET	 0.009002	-0.000782	 0.042196
											CHANNELS 3 Zrotation Xrotation Yrotation
											End Site
											{
												OFFSET	 0.009002	-0.000782	 0.042196
											}
										}
									}
								}
							}
						}
					}
				}
			}
		}
	}
}
MOTION
Frames:    4
Frame Time: 0.03333334
-0.000558	 0.019771	 1.270944	 0.003182	 0.003851	-0.140041	 8.401216	-1.684207	 176.545200	 1.488438	-10.664510	-0.620708	-8.895635	 69.821880	 2.999252	-2.385833	 28.452760	 0.000004	-8.493283	-2.527519	-176.353100	-1.461356	-11.836090	 0.678085	 8.833720	 70.308090	-3.090921	 2.384658	 28.388730	 0.000004	-4.852983	 2.740421	-0.059865	 1.643888	 3.642942	 0.656368	-4.943389	-4.535386	-1.082798	-91.776180	 78.527430	-180.000000	 47.166360	 34.342270	-62.618000	-13.043070	 0.461938	-3.315879	-32.412120	-12.846200	-4.919046	-2.635965	 4.993658	 6.788941	-5.165319	 0.784187	 3.516649	-5.225038	 0.466231	 0.424329	-0.000002	-3.783157	-0.089647	-4.798608	 4.828516	 0.202421	 89.782140	 78.203900	 180.000000	-61.608530	 40.590420	 56.510700	 11.890500	 4.618362	 11.192910	 32.752620	-13.866840	 9.406113	 6.112037	 4.509576	-0.364401	 4.968462	 1.518543	-9.347576	 5.168945	 0.703820	 2.021906
-0.000556	 0.019778	 1.270908	 0.003183	 0.003849	-0.140043	 8.592569	-1.741050	 176.536600	 1.487446	-10.754090	-0.626047	-8.915643	 69.854810	 3.020900	-2.385833	 28.452760	 0.000004	-8.684643	-2.580810	-176.345000	-1.460376	-11.916780	 0.682843	 8.849790	 70.337480	-3.108203	 2.384658	 28.388730	 0.000004	-6.441312	 2.740420	-0.059863	 1.643888	 3.642942	 0.656368	-4.943391	-4.535384	-1.082798	-91.776120	 78.527420	 180.000000	 47.123940	 34.313300	-62.539470	-14.014250	 0.578280	-3.886210	-32.861980	-13.265720	-5.038068	-2.635965	 4.993658	 6.788941	-5.165319	 0.784187	 3.516649	-5.225038	 0.466231	 0.424329	-0.000002	-3.783157	-0.089647	-4.798611	 4.828515	 0.202421	 89.782140	 78.203890	 180.000000	-61.333840	 40.315120	 56.840770	 12.555520	 5.149753	 12.304380	 33.268120	-14.430330	 9.451961	 6.112037	 4.509576	-0.364401	 4.968462	 1.518543	-9.347576	 5.168945	 0.703820	 2.021906
-0.000548	 0.019820	 1.270743	 0.003183	 0.003849	-0.140043	 9.440924	-1.988826	 176.498500	 1.483056	-11.141540	-0.649172	-9.000859	 69.996040	 3.113134	-2.385833	 28.452760	 0.000004	-9.532993	-2.814252	-176.309200	-1.456036	-12.267800	 0.703576	 8.918282	 70.464400	-3.181882	 2.384658	 28.388730	 0.000004	-13.333950	 2.740420	-0.059864	 1.643887	 3.642942	 0.656369	-4.943388	-4.535384	-1.082798	-91.776150	 78.527430	 180.000000	 46.909800	 34.148560	-62.130070	-18.332230	 1.336932	-6.393243	-34.914130	-15.100860	-5.656749	-2.635965	 4.993658	 6.788941	-5.165319	 0.784187	 3.516649	-5.225038	 0.466231	 0.424329	-0.000002	-3.783157	-0.089647	-4.798611	 4.828515	 0.202421	 89.782130	 78.203890	 180.000000	-59.058350	 38.587340	 57.395130	 14.673110	 9.651031	 20.214860	 35.635620	-16.998810	 9.746724	 6.112037	 4.509576	-0.364401	 4.968462	 1.518543	-9.347576	 5.168945	 0.703820	 2.021906
-0.000541	 0.019874	 1.270600	 0.003183	 0.003849	-0.140043	 10.227350	-2.213496	 176.463500	 1.478975	-11.488920	-0.669959	-9.075453	 70.121140	 3.193827	-2.385833	 28.452760	 0.000004	-10.319320	-3.027067	-176.276500	-1.451997	-12.584470	 0.722329	 8.978167	 70.577840	-3.246186	 2.384658	 28.388730	 0.000004	-19.167630	 2.740420	-0.059863	 1.643888	 3.642942	 0.656368	-4.943389	-4.535384	-1.082798	-91.776120	 78.527490	 179.999900	 46.675690	 33.965180	-61.678790	-22.229740	 2.363729	-8.595604	-36.866150	-16.692620	-6.348707	-2.635965	 4.993658	 6.788941	-5.165319	 0.784187	 3.516649	-5.225038	 0.466231	 0.424329	-0.000002	-3.783157	-0.089647	-4.798608	 4.828516	 0.202421	 89.782140	 78.203900	 180.000000	-56.854380	 36.889890	 61.997540	 16.303410	 11.889260	 23.369480	 37.358740	-19.495370	 9.923571	 6.112037	 4.509576	-0.364401	 4.968462	 1.518543	-9.347576	 5.168945	 0.703820	 2.021906
